# xmcd
#
# Track frame offsets: 
#        150
#        26182
#        51905
#        81337
#        102923
#        125692
#        156054
#        189241
#        207312
#        240455
#        270358
#
# Disc length: 3937 seconds
#
# Revision: 1
# Processed by: cddbd v1.5.2PL0 Copyright (c) Steve Scherf et al.
# Submitted via: ExactAudioCopyFreeDBPlugin 1.0
#
DISCID=910f5f0b
DTITLE=Quercus - Nightfall
DYEAR=1900
DGENRE=Jazz
TTITLE0=Auld Lang Syne
TTITLE1=Once I Loved You Dear (The Irish Girl)
TTITLE2=On Berrow Sands
TTITLE3=Christchurch
TTITLE4=You Don't Know What Love Is
TTITLE5=The Manchester Angel
TTITLE6=Don't Think Twice It's Alright
TTITLE7=Emmeline
TTITLE8=The Shepherd And His Dog
TTITLE9=The Cuckoo
TTITLE10=Somewhere
EXTD=
EXTT0=
EXTT1=
EXTT2=
EXTT3=
EXTT4=
EXTT5=
EXTT6=
EXTT7=
EXTT8=
EXTT9=
EXTT10=
PLAYORDER=
